<svg id="Layer_1" xmlns="http://www.w3.org/2000/svg" viewBox="0 0 60 60"><style>.st0{fill:#fff}</style><path d="M30 58.9c-15.9 0-28.9-13-28.9-28.9S14.1 1.1 30 1.1s28.9 13 28.9 28.9-13 28.9-28.9 28.9z"/><path d="M30 1.3c15.9 0 28.8 12.9 28.8 28.8S45.9 58.8 30 58.8 1.3 45.9 1.3 30 14.1 1.3 30 1.3m0-.3C14 1 1 14 1 30s13 29 29 29 29-13 29-29S46 1 30 1z"/><path class="st0" d="M11.1 22.8c.2-5.3 4-9.8 9.5-9.7 5.5 0 9.1 4.7 9.4 9.9-.1-1.2.1-3.3 0-4.8-.2-5.3-3.7-10.1-9.4-10.1-5.6 0-9.3 4.6-9.5 9.9-.1 1.5.1 3.6 0 4.8z"/><path class="st0" d="M30 23c.2-5.3 4-9.8 9.5-9.7 5.5 0 9.1 4.7 9.4 9.9-.1-1.2.1-3.3 0-4.8-.2-5.3-3.7-10.1-9.4-10.1-5.6 0-9.3 4.6-9.5 9.9-.1 1.5.1 3.6 0 4.8zM10.8 40.5c.2 5.3 3.9 9.9 9.5 9.9s9.1-4.8 9.4-10.1c.1-1.5-.1-3.6 0-4.8-.2 5.2-3.8 9.9-9.4 9.9-5.5 0-9.3-4.5-9.5-9.7.1 1.1-.1 3.2 0 4.8z"/><path class="st0" d="M29.7 40.5c.2 5.3 3.9 9.9 9.5 9.9s9.1-4.8 9.4-10.1c.1-1.5-.1-3.6 0-4.8-.2 5.2-3.8 9.9-9.4 9.9-5.5 0-9.3-4.5-9.5-9.7.1 1.1-.1 3.2 0 4.8zM48.9 18.2c-.5 5.5-5.2 9.1-10.6 8.9 0 0-.1 5 0 5 5.4.2 10.1-3.4 10.6-8.9.1-1.7-.2-3.4 0-5z"/><path class="st0" d="M38.3 32.1c4.9.2 10.2 3.1 10.3 8.5v-.9-3.4c-.1-5.8-4.8-9-10.3-9.2 0 0-.1 5 0 5z"/><g><path class="st0" d="M19.5 26.9c-2.6.1-5.1 1-6.8 3-1.7 2-1.9 4.5-1.9 7v2.5c0-4.6 4.6-7.4 8.7-7.6.1.1 0-4.9 0-4.9z"/></g></svg>