<svg id="Layer_1" xmlns="http://www.w3.org/2000/svg" viewBox="0 0 60 60"><style>.st0{fill:url(#SVGID_1_)}.st1{fill:#e6e6e6}.st2{fill:url(#SVGID_2_)}.st3{fill:url(#SVGID_3_)}.st4{fill:url(#SVGID_4_)}.st5{fill:url(#SVGID_5_)}.st6{fill:url(#SVGID_6_)}.st7{fill:url(#SVGID_7_)}</style><path d="M30 58.9c-15.9 0-28.9-13-28.9-28.9S14.1 1.1 30 1.1s28.9 13 28.9 28.9-13 28.9-28.9 28.9z"/><path d="M30 1.3c15.9 0 28.8 12.9 28.8 28.8S45.9 58.8 30 58.8 1.3 45.9 1.3 30 14.1 1.3 30 1.3m0-.3C14 1 1 14 1 30s13 29 29 29 29-13 29-29S46 1 30 1z"/><linearGradient id="SVGID_1_" gradientUnits="userSpaceOnUse" x1="10.615" y1="15.541" x2="30.5" y2="15.541"><stop offset="0" stop-color="#fff"/><stop offset="1"/></linearGradient><path class="st0" d="M11.1 22.8c.2-5.3 4-9.8 9.5-9.7 5.5 0 9.1 4.7 9.4 9.9-.1-1.2.1-3.3 0-4.8-.2-5.3-3.7-10.1-9.4-10.1-5.6 0-9.3 4.6-9.5 9.9-.1 1.5.1 3.6 0 4.8z"/><path class="st1" d="M29.7 38.3l.3-13.4v-3.4-.9L29.7 34v4.3z"/><linearGradient id="SVGID_2_" gradientUnits="userSpaceOnUse" x1="29.5" y1="15.726" x2="49.385" y2="15.726"><stop offset="0" stop-color="#fff"/><stop offset="1"/></linearGradient><path class="st2" d="M30 23c.2-5.3 4-9.8 9.5-9.7 5.5 0 9.1 4.7 9.4 9.9-.1-1.2.1-3.3 0-4.8-.2-5.3-3.7-10.1-9.4-10.1-5.6 0-9.3 4.6-9.5 9.9-.1 1.5.1 3.6 0 4.8z"/><linearGradient id="SVGID_3_" gradientUnits="userSpaceOnUse" x1="10.32" y1="42.927" x2="30.206" y2="42.927"><stop offset="0" stop-color="#fff"/><stop offset="1"/></linearGradient><path class="st3" d="M10.8 40.5c.2 5.3 3.9 9.9 9.5 9.9s9.1-4.8 9.4-10.1c.1-1.5-.1-3.6 0-4.8-.2 5.2-3.8 9.9-9.4 9.9-5.5 0-9.3-4.5-9.5-9.7.1 1.1-.1 3.2 0 4.8z"/><g><linearGradient id="SVGID_4_" gradientUnits="userSpaceOnUse" x1="29.206" y1="42.927" x2="49.091" y2="42.927"><stop offset="0" stop-color="#fff"/><stop offset="1"/></linearGradient><path class="st4" d="M29.7 40.5c.2 5.3 3.9 9.9 9.5 9.9s9.1-4.8 9.4-10.1c.1-1.5-.1-3.6 0-4.8-.2 5.2-3.8 9.9-9.4 9.9-5.5 0-9.3-4.5-9.5-9.7.1 1.1-.1 3.2 0 4.8z"/></g><g><linearGradient id="SVGID_5_" gradientUnits="userSpaceOnUse" x1="38.249" y1="25.157" x2="49.377" y2="25.157"><stop offset="0" stop-color="#fff"/><stop offset="1"/></linearGradient><path class="st5" d="M48.9 18.2c-.5 5.5-5.2 9.1-10.6 8.9 0 0-.1 5 0 5 5.4.2 10.1-3.4 10.6-8.9.1-1.7-.2-3.4 0-5z"/></g><g><linearGradient id="SVGID_6_" gradientUnits="userSpaceOnUse" x1="38.28" y1="34.03" x2="49.079" y2="34.03"><stop offset="0" stop-color="#fff"/><stop offset="1"/></linearGradient><path class="st6" d="M38.3 32.1c4.9.2 10.2 3.1 10.3 8.5v-.9-3.4c-.1-5.8-4.8-9-10.3-9.2 0 0-.1 5 0 5z"/></g><g><linearGradient id="SVGID_7_" gradientUnits="userSpaceOnUse" x1="10.32" y1="33.724" x2="19.55" y2="33.724"><stop offset="0" stop-color="#fff"/><stop offset="1"/></linearGradient><path class="st7" d="M19.5 26.9c-2.6.1-5.1 1-6.8 3-1.7 2-1.9 4.5-1.9 7v2.5c0-4.6 4.6-7.4 8.7-7.6.1.1 0-4.9 0-4.9z"/></g></svg>