<svg id="Layer_1" xmlns="http://www.w3.org/2000/svg" viewBox="0 0 60 60"><style>.st0{fill:none;stroke:#237679;stroke-miterlimit:10}.st1{fill:#237679}</style><circle class="st0" cx="30" cy="30" r="29"/><path class="st1" d="M11.1 22.8c.2-5.3 4-9.8 9.5-9.7 5.5 0 9.1 4.7 9.4 9.9-.1-1.2.1-3.3 0-4.8-.2-5.3-3.7-10.1-9.4-10.1-5.6 0-9.3 4.6-9.5 9.9-.1 1.5.1 3.6 0 4.8z"/><path class="st1" d="M30 23c.2-5.3 4-9.8 9.5-9.7 5.5 0 9.1 4.7 9.4 9.9-.1-1.2.1-3.3 0-4.8-.2-5.3-3.7-10.1-9.4-10.1-5.6 0-9.3 4.6-9.5 9.9-.1 1.5.1 3.6 0 4.8zM10.8 40.5c.2 5.3 3.9 9.9 9.5 9.9s9.1-4.8 9.4-10.1c.1-1.5-.1-3.6 0-4.8-.2 5.2-3.8 9.9-9.4 9.9-5.5 0-9.3-4.5-9.5-9.7.1 1.1-.1 3.2 0 4.8z"/><path class="st1" d="M29.7 40.5c.2 5.3 3.9 9.9 9.5 9.9s9.1-4.8 9.4-10.1c.1-1.5-.1-3.6 0-4.8-.2 5.2-3.8 9.9-9.4 9.9-5.5 0-9.3-4.5-9.5-9.7.1 1.1-.1 3.2 0 4.8zM48.9 18.2c-.5 5.5-5.2 9.1-10.6 8.9 0 0-.1 5 0 5 5.4.2 10.1-3.4 10.6-8.9.1-1.7-.2-3.4 0-5z"/><path class="st1" d="M38.3 32.1c4.9.2 10.2 3.1 10.3 8.5v-.9-3.4c-.1-5.8-4.8-9-10.3-9.2 0 0-.1 5 0 5zM19.5 26.9c-2.6.1-5.1 1-6.8 3-1.7 2-1.9 4.5-1.9 7v2.5c0-4.6 4.6-7.4 8.7-7.6.1.1 0-4.9 0-4.9z"/></svg>