<?xml version="1.0" encoding="utf-8"?>
<!-- Generator: Adobe Illustrator 20.1.0, SVG Export Plug-In . SVG Version: 6.00 Build 0)  -->
<svg version="1.1" id="Layer_1" xmlns="http://www.w3.org/2000/svg" xmlns:xlink="http://www.w3.org/1999/xlink" x="0px" y="0px"
	 viewBox="0 0 60 60" style="enable-background:new 0 0 60 60;" xml:space="preserve">
<style type="text/css">
	.st0{fill:url(#SVGID_1_);}
	.st1{fill:#E6E6E6;}
	.st2{fill:url(#SVGID_2_);}
	.st3{fill:url(#SVGID_3_);}
	.st4{fill:url(#SVGID_4_);}
	.st5{fill:url(#SVGID_5_);}
	.st6{fill:url(#SVGID_6_);}
	.st7{fill:url(#SVGID_7_);}
</style>
<g>
	<path d="M30,58.9c-15.9,0-28.9-13-28.9-28.9S14.1,1.1,30,1.1s28.9,13,28.9,28.9S45.9,58.9,30,58.9z"/>
	<path d="M30,1.3c15.9,0,28.8,12.9,28.8,28.8S45.9,58.8,30,58.8S1.3,45.9,1.3,30S14.1,1.3,30,1.3 M30,1C14,1,1,14,1,30s13,29,29,29
		s29-13,29-29S46,1,30,1L30,1z"/>
</g>
<g>
	<g>
		<linearGradient id="SVGID_1_" gradientUnits="userSpaceOnUse" x1="10.6148" y1="15.5409" x2="30.5" y2="15.5409">
			<stop  offset="0" style="stop-color:#FFFFFF"/>
			<stop  offset="1" style="stop-color:#000000"/>
		</linearGradient>
		<path class="st0" d="M11.1,22.8c0.2-5.3,4-9.8,9.5-9.7c5.5,0,9.1,4.7,9.4,9.9c-0.1-1.2,0.1-3.3,0-4.8c-0.2-5.3-3.7-10.1-9.4-10.1
			c-5.6,0-9.3,4.6-9.5,9.9C11,19.5,11.2,21.6,11.1,22.8L11.1,22.8z"/>
	</g>
</g>
<g>
	<g>
		<path class="st1" d="M29.7,38.3c0.1-4.5,0.2-8.9,0.3-13.4c0-1.1,0-2.3,0-3.4c0-0.2,0-1.8,0-0.9c-0.1,4.5-0.2,8.9-0.3,13.4
			c0,1.1,0,2.3,0,3.4C29.7,37.6,29.7,39.1,29.7,38.3L29.7,38.3z"/>
	</g>
</g>
<g>
	<g>
		<linearGradient id="SVGID_2_" gradientUnits="userSpaceOnUse" x1="29.5" y1="15.7256" x2="49.3852" y2="15.7256">
			<stop  offset="0" style="stop-color:#FFFFFF"/>
			<stop  offset="1" style="stop-color:#000000"/>
		</linearGradient>
		<path class="st2" d="M30,23c0.2-5.3,4-9.8,9.5-9.7c5.5,0,9.1,4.7,9.4,9.9c-0.1-1.2,0.1-3.3,0-4.8c-0.2-5.3-3.7-10.1-9.4-10.1
			c-5.6,0-9.3,4.6-9.5,9.9C29.9,19.7,30.1,21.8,30,23L30,23z"/>
	</g>
</g>
<g>
	<g>
		<linearGradient id="SVGID_3_" gradientUnits="userSpaceOnUse" x1="10.3204" y1="42.9267" x2="30.2056" y2="42.9267">
			<stop  offset="0" style="stop-color:#FFFFFF"/>
			<stop  offset="1" style="stop-color:#000000"/>
		</linearGradient>
		<path class="st3" d="M10.8,40.5c0.2,5.3,3.9,9.9,9.5,9.9c5.6,0,9.1-4.8,9.4-10.1c0.1-1.5-0.1-3.6,0-4.8c-0.2,5.2-3.8,9.9-9.4,9.9
			c-5.5,0-9.3-4.5-9.5-9.7C10.9,36.8,10.7,38.9,10.8,40.5L10.8,40.5z"/>
	</g>
</g>
<g>
	<g>
		<linearGradient id="SVGID_4_" gradientUnits="userSpaceOnUse" x1="29.2056" y1="42.9267" x2="49.0908" y2="42.9267">
			<stop  offset="0" style="stop-color:#FFFFFF"/>
			<stop  offset="1" style="stop-color:#000000"/>
		</linearGradient>
		<path class="st4" d="M29.7,40.5c0.2,5.3,3.9,9.9,9.5,9.9c5.6,0,9.1-4.8,9.4-10.1c0.1-1.5-0.1-3.6,0-4.8c-0.2,5.2-3.8,9.9-9.4,9.9
			c-5.5,0-9.3-4.5-9.5-9.7C29.8,36.8,29.6,38.9,29.7,40.5L29.7,40.5z"/>
	</g>
</g>
<g>
	<g>
		<linearGradient id="SVGID_5_" gradientUnits="userSpaceOnUse" x1="38.2494" y1="25.1567" x2="49.377" y2="25.1567">
			<stop  offset="0" style="stop-color:#FFFFFF"/>
			<stop  offset="1" style="stop-color:#000000"/>
		</linearGradient>
		<path class="st5" d="M48.9,18.2c-0.5,5.5-5.2,9.1-10.6,8.9c0,0-0.1,5,0,5c5.4,0.2,10.1-3.4,10.6-8.9C49,21.5,48.7,19.8,48.9,18.2
			L48.9,18.2z"/>
	</g>
</g>
<g>
	<g>
		<linearGradient id="SVGID_6_" gradientUnits="userSpaceOnUse" x1="38.2799" y1="34.0296" x2="49.0793" y2="34.0296">
			<stop  offset="0" style="stop-color:#FFFFFF"/>
			<stop  offset="1" style="stop-color:#000000"/>
		</linearGradient>
		<path class="st6" d="M38.3,32.1c4.9,0.2,10.2,3.1,10.3,8.5c0,0.9,0-0.8,0-0.9c0-1.1,0-2.3,0-3.4c-0.1-5.8-4.8-9-10.3-9.2
			C38.3,27.1,38.2,32.1,38.3,32.1L38.3,32.1z"/>
	</g>
</g>
<g>
	<g>
		<linearGradient id="SVGID_7_" gradientUnits="userSpaceOnUse" x1="10.3203" y1="33.7242" x2="19.5498" y2="33.7242">
			<stop  offset="0" style="stop-color:#FFFFFF"/>
			<stop  offset="1" style="stop-color:#000000"/>
		</linearGradient>
		<path class="st7" d="M19.5,26.9c-2.6,0.1-5.1,1-6.8,3c-1.7,2-1.9,4.5-1.9,7c0,1.1,0,2.3,0,3.4c0,0.9,0-0.7,0-0.9
			c0-4.6,4.6-7.4,8.7-7.6C19.6,31.9,19.5,26.9,19.5,26.9L19.5,26.9z"/>
	</g>
</g>
</svg>
