<?xml version="1.0" encoding="utf-8"?>
<!-- Generator: Adobe Illustrator 20.1.0, SVG Export Plug-In . SVG Version: 6.00 Build 0)  -->
<svg version="1.1" id="Layer_1" xmlns="http://www.w3.org/2000/svg" xmlns:xlink="http://www.w3.org/1999/xlink" x="0px" y="0px"
	 viewBox="0 0 60 60" style="enable-background:new 0 0 60 60;" xml:space="preserve">
<style type="text/css">
	.st0{fill:#FFEB84;}
</style>
<g>
	<path class="st0" d="M30,2c15.4,0,28,12.6,28,28S45.4,58,30,58S2,45.4,2,30S14.6,2,30,2 M30,1C14,1,1,14,1,30s13,29,29,29
		s29-13,29-29S46,1,30,1L30,1z"/>
</g>
<g>
	<g>
		<path class="st0" d="M11.1,22.8c0.2-5.3,4-9.8,9.5-9.7c5.5,0,9.1,4.7,9.4,9.9c-0.1-1.2,0.1-3.3,0-4.8c-0.2-5.3-3.7-10.1-9.4-10.1
			c-5.6,0-9.3,4.6-9.5,9.9C11,19.5,11.2,21.6,11.1,22.8L11.1,22.8z"/>
	</g>
</g>
<g>
	<g>
		<path class="st0" d="M30,23c0.2-5.3,4-9.8,9.5-9.7c5.5,0,9.1,4.7,9.4,9.9c-0.1-1.2,0.1-3.3,0-4.8c-0.2-5.3-3.7-10.1-9.4-10.1
			c-5.6,0-9.3,4.6-9.5,9.9C29.9,19.7,30.1,21.8,30,23L30,23z"/>
	</g>
</g>
<g>
	<g>
		<path class="st0" d="M10.8,40.5c0.2,5.3,3.9,9.9,9.5,9.9s9.1-4.8,9.4-10.1c0.1-1.5-0.1-3.6,0-4.8c-0.2,5.2-3.8,9.9-9.4,9.9
			c-5.5,0-9.3-4.5-9.5-9.7C10.9,36.8,10.7,38.9,10.8,40.5L10.8,40.5z"/>
	</g>
</g>
<g>
	<g>
		<path class="st0" d="M29.7,40.5c0.2,5.3,3.9,9.9,9.5,9.9s9.1-4.8,9.4-10.1c0.1-1.5-0.1-3.6,0-4.8c-0.2,5.2-3.8,9.9-9.4,9.9
			c-5.5,0-9.3-4.5-9.5-9.7C29.8,36.8,29.6,38.9,29.7,40.5L29.7,40.5z"/>
	</g>
</g>
<g>
	<g>
		<path class="st0" d="M48.9,18.2c-0.5,5.5-5.2,9.1-10.6,8.9c0,0-0.1,5,0,5c5.4,0.2,10.1-3.4,10.6-8.9C49,21.5,48.7,19.8,48.9,18.2
			L48.9,18.2z"/>
	</g>
</g>
<g>
	<g>
		<path class="st0" d="M38.3,32.1c4.9,0.2,10.2,3.1,10.3,8.5c0,0.9,0-0.8,0-0.9c0-1.1,0-2.3,0-3.4c-0.1-5.8-4.8-9-10.3-9.2
			C38.3,27.1,38.2,32.1,38.3,32.1L38.3,32.1z"/>
	</g>
</g>
<g>
	<g>
		<path class="st0" d="M19.5,26.9c-2.6,0.1-5.1,1-6.8,3s-1.9,4.5-1.9,7c0,1.1,0,2.3,0,3.4c0,0.9,0-0.7,0-0.9c0-4.6,4.6-7.4,8.7-7.6
			C19.6,31.9,19.5,26.9,19.5,26.9L19.5,26.9z"/>
	</g>
</g>
</svg>
